<svg class="imprint__signature" xmlns="http://www.w3.org/2000/svg" viewBox="0 0 217.63 140.23">
    <path class="imprint__path" d="M73.19,44.2c-11.55-1.65-21.78,1.92-33,4.76C112.95,1,69.15-18.91,14.27,22.37c-2.52,1.27-21.17,16.43-11.52,15.11,1.93-.39,4.81-1.83,5.83-3.64C40.99-5.56,109.77-4.69,38.49,45.28c1.46-10.81,3.22-21.56,5.31-32.29,.42-2.14-8.5,.63-9.05,3.45-3.38,17.33-5.9,34.72-7.66,52.29-1.22,16.65-4.7,33.03-6.9,49.53-.2,2.44,8.82-.69,9.05-3.45,3.11-20.22,6.37-40.46,8.15-60.88,11.02-4.38,48.47-11.03,38.5,11.18-9.35,13.56-23.24,23.62-33.63,36.41-4.26,3.46-46.58,51.98-20.82,35.22,12.02-22.56,32.62-40.04,49.76-58.66,11.63-9.95,27.46-30.47,1.99-33.86Z" />
    <path class="imprint__path" d="M188.01,66.51c9.11-3.67,25.83-11.28,14.73-22.31-.95-2.23-10.01,1.97-8.94,4.47,8.85,10.41-.06,10.79-8.22,15.2,.58-12.53,1.39-25,.92-37.56-.08-2.7-9.13,.83-9.05,3.45,.29,9.63,.07,19.09-.51,28.7-.57,9.45-.4,18.76-2.5,28.05-.46,2.05,8.41-.62,9.05-3.45,1.2-5.3,1.65-10.6,1.93-15.93,.91,0,1.98-.38,2.59-.63Z" />
    <path class="imprint__path" d="M217.55,75.86c-3.22-9.53-15.1-17.06-24.17-10.43-.7,.58-2.81,2.98-.5,3.01,8.06,.08,12.9,4.73,15.73,11.9,.87,2.2,9.96-1.9,8.95-4.47Z" />
    <path class="imprint__path" d="M125.81,50.14c-2.41-.52-10.32,4.75-6.91,5.49,1.73,.37,3.22,1.26,4.48,2.47-11.21,3.08-18.52,19.4-13.83,30.06,3.44,7.37,12.74,3.28,17.42-.63,11.45-8.72,15.82-32.63-1.16-37.38Zm-3.99,36.57c.14-.05,.25-.04,.28,.08,.02,.07-.09,.03-.28-.08Zm2-3.31c-.67,1.08-1.48,2.19-2.31,3.12-.89-.57-2.47-1.73-2.37-1.6-4.89-7.93-.35-19.14,5.88-24.87,5.04,7.32,3.51,16.47-1.2,23.36Z" />
    <path class="imprint__path" d="M172.26,63.54c-9.76,2.07-13.89,14.04-21.4,19.41-5.58-2.53-3-14.7-1.79-19.6,2.8,.05,8.52-3.22,7.58-5.11-1.15-2.33-.97-4.61-1.09-7.12-.15-2.9-6.56,.73-7.48,1.47-12.58,10.11-16.41,49.99,8.68,30.88,6.36-5.02,10.76-12.13,16.64-17.66,1.52-1.43,.5-2.27-1.14-2.28Z" />
    <path class="imprint__path" d="M110.25,53.62c-8.57,.95-15.66,10.25-17.83,18.27-.15-1.43-.33-2.85-.58-4.27-.32-1.82-9.47,1.44-8.95,4.47,1.63,10.31-.95,26.12,13.36,12.27,5.23-9.26,3.95-21.08,13.49-27.74,1.38-1.06,2.15-2.17,.5-3.01Z" />
</svg>